<svg width="1024" height="1024" viewBox="0 0 1024 1024" fill="none" xmlns="http://www.w3.org/2000/svg">
<path d="M267.887 562L325.937 456.25H340.187L398.087 562H381.287L365.087 532L373.037 536.35H292.637L300.737 532L284.537 562H267.887ZM332.687 471.7L303.437 527.35L298.187 523.75H367.487L362.537 527.35L332.987 471.7H332.687ZM454.852 563.35C445.352 563.35 437.102 561.85 430.102 558.85C423.102 555.85 417.702 551.55 413.902 545.95C410.202 540.35 408.352 533.7 408.352 526C408.352 518.3 410.202 511.6 413.902 505.9C417.602 500.1 422.752 495.6 429.352 492.4C436.052 489.2 443.702 487.6 452.302 487.6C460.502 487.6 467.552 489.05 473.452 491.95C479.352 494.75 483.902 498.85 487.102 504.25C490.302 509.65 491.902 516.15 491.902 523.75V528.85H420.202V519.25H481.702L478.402 521.65C478.402 514.15 476.152 508.4 471.652 504.4C467.252 500.4 460.902 498.4 452.602 498.4C446.402 498.4 441.152 499.45 436.852 501.55C432.552 503.65 429.202 506.65 426.802 510.55C424.502 514.35 423.352 518.85 423.352 524.05V525.1C423.352 530.8 424.502 535.6 426.802 539.5C429.202 543.3 432.802 546.25 437.602 548.35C442.402 550.35 448.452 551.35 455.752 551.35C461.952 551.35 467.552 550.65 472.552 549.25C477.552 547.85 481.902 545.7 485.602 542.8L490.402 553.3C486.802 556.4 481.802 558.85 475.402 560.65C469.102 562.45 462.252 563.35 454.852 563.35ZM512.633 562V488.95H527.783V506.95H525.833C528.133 500.65 531.983 496 537.383 493C542.883 489.9 549.683 488.05 557.783 487.45L563.183 487L564.383 500.05L554.633 500.95C545.933 501.65 539.383 503.85 534.983 507.55C530.583 511.15 528.383 516 528.383 522.1V562H512.633ZM616.358 563.35C607.358 563.35 599.558 561.8 592.958 558.7C586.458 555.5 581.458 551.05 577.958 545.35C574.458 539.55 572.708 532.9 572.708 525.4C572.708 517.8 574.458 511.2 577.958 505.6C581.458 499.9 586.458 495.5 592.958 492.4C599.558 489.2 607.358 487.6 616.358 487.6C625.458 487.6 633.258 489.2 639.758 492.4C646.258 495.5 651.258 499.9 654.758 505.6C658.258 511.3 660.008 517.9 660.008 525.4C660.008 532.9 658.258 539.55 654.758 545.35C651.258 551.05 646.258 555.5 639.758 558.7C633.258 561.8 625.458 563.35 616.358 563.35ZM616.358 551.35C625.158 551.35 632.008 549.05 636.908 544.45C641.908 539.75 644.408 533.4 644.408 525.4C644.408 517.4 641.908 511.1 636.908 506.5C632.008 501.9 625.158 499.6 616.358 499.6C607.558 499.6 600.658 501.9 595.658 506.5C590.758 511.1 588.308 517.4 588.308 525.4C588.308 533.4 590.758 539.75 595.658 544.45C600.658 549.05 607.558 551.35 616.358 551.35ZM713.908 563.35C708.708 563.35 703.808 563 699.208 562.3C694.608 561.6 690.458 560.65 686.758 559.45C683.158 558.15 680.108 556.6 677.608 554.8L681.808 544.45C684.708 546.15 687.908 547.6 691.408 548.8C695.008 550 698.808 550.9 702.808 551.5C706.808 552.1 710.858 552.4 714.958 552.4C721.158 552.4 726.008 551.45 729.508 549.55C733.108 547.55 734.908 544.9 734.908 541.6C734.908 539.2 733.908 537.25 731.908 535.75C730.008 534.15 726.758 533.05 722.158 532.45L701.908 529.75C694.608 528.75 689.058 526.55 685.258 523.15C681.558 519.75 679.708 515.45 679.708 510.25C679.708 505.85 681.108 501.95 683.908 498.55C686.808 495.15 690.858 492.5 696.058 490.6C701.358 488.6 707.658 487.6 714.958 487.6C719.758 487.6 724.208 487.95 728.308 488.65C732.408 489.35 736.108 490.35 739.408 491.65C742.708 492.95 745.458 494.55 747.658 496.45L742.708 506.5C740.008 504.7 737.108 503.25 734.008 502.15C731.008 500.95 727.808 500.05 724.408 499.45C721.108 498.85 717.658 498.55 714.058 498.55C707.258 498.55 702.258 499.65 699.058 501.85C695.858 503.95 694.258 506.55 694.258 509.65C694.258 512.15 695.158 514.25 696.958 515.95C698.858 517.55 701.958 518.6 706.258 519.1L726.658 521.8C734.158 522.7 739.808 524.8 743.608 528.1C747.508 531.3 749.458 535.55 749.458 540.85C749.458 545.45 747.958 549.45 744.958 552.85C742.058 556.25 737.958 558.85 732.658 560.65C727.358 562.45 721.108 563.35 713.908 563.35Z" fill="#FFFFFF"/>
</svg>
